<svg xmlns="http://www.w3.org/2000/svg">

	<symbol id="logo" width="24" height="24" fill="none" viewBox="0 0 24 24">
		<path fill="#fff"
			d="M20.701 13.08a6.926 6.926 0 0 0-.83-1.164c.265-.194 2.396-1.806 2.415-4.497.003-.455-.05-1.602-.755-2.713a4.494 4.494 0 0 0-3.79-2.08L5.282 2.57c-.32 1.69-.64 3.38-.958 5.07-.327 1.73.725 3.444 2.399 3.82l.136.029c1.413.266 2.511-.324 2.823-.507a.671.671 0 0 0 .101-.454l-.496-3.587c-.042-.301.316-.482.522-.263l2.453 2.602a.628.628 0 0 0 .743.134l3.165-1.593c.266-.134.544.16.405.429l-1.65 3.201a.673.673 0 0 0 .106.767l2.452 2.602c.206.219.02.58-.272.528l-3.472-.624a.636.636 0 0 0-.677.341l-1.65 3.201a.304.304 0 0 1-.573-.103l-.496-3.586a.65.65 0 0 0-.525-.556l-1.683-.303a5.935 5.935 0 0 0-1.99-.02h-.003c-.825.133-1.708.547-2.604 1.433a3.265 3.265 0 0 0-.91 1.775l-.913 5.328c3.84.018 7.68.034 11.521.05a6.57 6.57 0 0 0 1.348-.133l.008-.002c1.988-.408 3.674-.753 5.054-2.248 1.578-1.709 2.042-4.145 1.66-5.427-.208-.7-.604-1.396-.604-1.396Z" />
	</symbol>

	<symbol id="back" width="20" height="20" fill="none" viewBox="0 0 20 20">
		<path fill="#fff" d="m9.024 10 4.125 4.125-1.179 1.179L6.667 10l5.303-5.304 1.178 1.179L9.024 10Z" />
	</symbol>

	<symbol id="arrow" width="16" height="16" fill="none" viewBox="0 0 16 16">
		<path fill="#fff" fill-opacity=".5"
			d="M10.781 7.333 7.205 3.757l.943-.943L13.333 8l-5.185 5.185-.943-.943 3.576-3.575H2.667V7.333h8.114Z" />
	</symbol>

	<symbol id="search" width="16" height="16" fill="none" viewBox="0 0 16 16">
		<path fill="#fff" fill-opacity=".5"
			d="m12.02 11.078 2.856 2.855-.943.943-2.855-2.855a6.002 6.002 0 0 1-9.745-4.687c0-3.313 2.688-6 6-6a6.002 6.002 0 0 1 4.688 9.744Zm-1.337-.495a4.665 4.665 0 0 0-3.35-7.917 4.665 4.665 0 0 0-4.666 4.667 4.665 4.665 0 0 0 7.916 3.35l.1-.1Z" />
	</symbol>

	<symbol id="cardInput" width="16" height="16" fill="none" viewBox="0 0 16 16">
		<path fill="#fff" fill-opacity=".5"
			d="M14.67 6.667v6.666a.667.667 0 0 1-.667.667h-12a.667.667 0 0 1-.666-.667V6.667H14.67Zm0-1.334H1.337V2.667c0-.369.298-.667.666-.667h12c.368 0 .667.298.667.667v2.666Zm-4.667 5.333V12h2.667v-1.334h-2.667Z" />
	</symbol>

	<symbol id="tonBlue" width="33" height="32" fill="none" viewBox="0 0 33 32">
		<path fill="url(#a)"
			d="M25.504 2.667H7.495c-3.311 0-5.41 3.571-3.744 6.459L14.866 28.39c.725 1.258 2.542 1.258 3.268 0L29.25 9.126c1.664-2.883-.435-6.46-3.744-6.46h-.002ZM14.856 22.613l-2.42-4.685-5.84-10.445a1.02 1.02 0 0 1 .897-1.526h7.361v16.658l.002-.002ZM26.4 7.48l-5.838 10.45-2.42 4.683V5.955h7.36c.808 0 1.284.857.898 1.525Z" />
		<defs>
			<radialGradient id="a" cx="0" cy="0" r="1" gradientTransform="rotate(90 .25 16.25) scale(13.3333)"
				gradientUnits="userSpaceOnUse">
				<stop stop-color="#52C2FF" />
				<stop offset="1" stop-color="#0098EA" />
			</radialGradient>
		</defs>
	</symbol>

	<symbol id="tonButton" width="16" height="16" fill="currentColor" viewBox="0 0 16 16">
		<path fill="currentColor"
			d="M12.502 1.333H3.497c-1.655 0-2.705 1.786-1.872 3.23l5.558 9.632a.943.943 0 0 0 1.634 0l5.558-9.632c.832-1.441-.217-3.23-1.872-3.23h-.001Zm-5.324 9.973-1.21-2.342-2.92-5.223a.51.51 0 0 1 .448-.762h3.681v8.329l.001-.002ZM12.95 3.74l-2.92 5.225-1.21 2.341V2.979h3.68a.51.51 0 0 1 .45.762Z" />
	</symbol>

	<symbol id="tonBig" width="33" height="32" fill="currentColor" viewBox="0 0 33 32">
		<path fill="currentColor"
			d="M25.504 2.667H7.495c-3.311 0-5.41 3.571-3.744 6.459L14.865 28.39c.726 1.258 2.543 1.258 3.269 0L29.25 9.126c1.664-2.883-.435-6.46-3.744-6.46h-.002ZM14.856 22.613l-2.42-4.685-5.84-10.445a1.02 1.02 0 0 1 .897-1.526h7.361v16.658l.002-.002ZM26.4 7.48l-5.838 10.45-2.42 4.683V5.955h7.36c.808 0 1.284.857.898 1.525Z" />
	</symbol>

	<symbol id="tonMini" width="14" height="14" fill="none" viewBox="0 0 14 14">
		<path fill="#fff"
			d="M10.94 1.167H3.06c-1.448 0-2.366 1.562-1.638 2.826l4.863 8.428a.826.826 0 0 0 1.43 0l4.863-8.428c.728-1.262-.19-2.826-1.638-2.826ZM6.28 9.893l-1.059-2.05-2.555-4.57a.446.446 0 0 1 .392-.667H6.28v7.288h.001Zm5.05-6.62L8.777 7.845l-1.06 2.048V2.605h3.221c.353 0 .562.375.393.668Z" />
	</symbol>

	<symbol id="sbp" width="40" height="40" fill="none" viewBox="0 0 40 40">
		<path fill="#1A1637" d="M0 20C0 8.954 8.954 0 20 0s20 8.954 20 20-8.954 20-20 20S0 31.046 0 20Z" />
		<path fill="#5B57A2" d="m9 12.66 3.286 5.627v3.433l-3.282 5.617L9 12.659Z" />
		<path fill="#D90751" d="m21.618 16.24 3.08-1.809L31 14.425l-9.382 5.507v-3.693Z" />
		<path fill="#FAB718" d="m21.6 12.626.018 7.451-3.294-1.939V7l3.277 5.626Z" />
		<path fill="#ED6F26" d="m31 14.425-6.302.006-3.097-1.805L18.324 7 31 14.425Z" />
		<path fill="#63B22F" d="M21.618 27.368v-3.615l-3.294-1.902L18.326 33l3.292-5.632Z" />
		<path fill="#1487C9" d="m24.69 25.576-12.404-7.289L9 12.66l21.987 12.91-6.297.007Z" />
		<path fill="#017F36" d="m18.326 33 3.292-5.632 3.072-1.792 6.297-.007L18.327 33Z" />
		<path fill="#984995" d="m9.004 27.337 9.347-5.486-3.142-1.847-2.923 1.716-3.282 5.617Z" />
	</symbol>

	<symbol id="btc" width="14" height="14" fill="none" viewBox="0 0 14 14">
		<path fill="#fff"
			d="M7 12.833A5.833 5.833 0 1 0 7 1.167a5.833 5.833 0 0 0 0 11.666Zm2.745-6.67c-.101.613-.423.914-.858 1.02.579.324.857.815.56 1.678-.371 1.081-1.2 1.18-2.3.97l-.282 1.142-.639-.159.283-1.141c-.072-.02-.145-.036-.218-.053a6.158 6.158 0 0 1-.306-.077l-.283 1.141-.637-.157.283-1.142-1.27-.346.316-.807s.479.132.472.123c.177.044.264-.08.3-.167l.453-1.83.33-1.301c.014-.14-.03-.325-.29-.395.018-.01-.467-.116-.467-.116l.189-.765 1.308.325.277-1.119.659.164-.277 1.118c.17.037.335.082.505.125l.277-1.118.641.159-.284 1.147c.809.297 1.391.737 1.258 1.58ZM6.77 6.39c.383.115 1.52.457 1.711-.304.178-.722-.806-.943-1.264-1.046-.054-.012-.1-.022-.137-.032L6.738 6.38l.032.01Zm-.592 2.228.056.017c.472.14 1.812.539 1.993-.216.188-.727-1.017-1.01-1.556-1.136a4.199 4.199 0 0 1-.15-.037l-.343 1.372Z" />
	</symbol>

	<symbol id="card" width="40" height="40" fill="none" viewBox="0 0 40 40">
		<path fill="#437DFC" d="M0 20C0 8.954 8.954 0 20 0s20 8.954 20 20-8.954 20-20 20S0 31.046 0 20Z" />
		<path fill="#fff"
			d="M28.337 18.333v8.334c0 .46-.373.833-.833.833h-15a.833.833 0 0 1-.833-.834v-8.333h16.666Zm0-1.666H11.671v-3.334c0-.46.373-.833.833-.833h15c.46 0 .833.373.833.833v3.333Zm-5.833 6.666V25h3.333v-1.667h-3.333Z" />
	</symbol>

	<symbol id="crypto" width="40" height="40" fill="none" viewBox="0 0 40 40">
		<path fill="#F09E0F" d="M0 20C0 8.954 8.954 0 20 0s20 8.954 20 20-8.954 20-20 20S0 31.046 0 20Z" />
		<path fill="#fff"
			d="M29.17 20.002v1.667c0 2.761-4.103 5-9.166 5-4.972 0-9.02-2.16-9.163-4.853l-.004-.147v-1.667c0 2.762 4.104 5 9.167 5s9.167-2.238 9.167-5Zm-9.166-6.666c5.063 0 9.167 2.238 9.167 5 0 2.761-4.104 5-9.167 5s-9.167-2.239-9.167-5c0-2.762 4.104-5 9.167-5Z" />
	</symbol>

	<symbol id="ton" width="40" height="40" fill="none" viewBox="0 0 40 40">
		<path fill="#0098EA" d="M20 40c11.046 0 20-8.954 20-20S31.046 0 20 0 0 8.954 0 20s8.954 20 20 20Z" />
		<path fill="#fff"
			d="M13.17 11.163c-2.51 0-4.103 2.709-2.84 4.898l8.43 14.611c.55.954 1.929.954 2.479 0l8.431-14.61c1.262-2.187-.33-4.9-2.84-4.9H13.17Zm5.583 15.128-1.835-3.553-4.43-7.923a.774.774 0 0 1 .68-1.157h5.584v12.634l.001-.001Zm8.755-11.477-4.428 7.925-1.836 3.552V13.657h5.583c.612 0 .973.65.68 1.157Z" />
	</symbol>

	<symbol id="phone" width="16" height="16" fill="none" viewBox="0 0 16 16">
		<path fill="#fff" fill-opacity=".5"
			d="M14 10.947v2.357c0 .35-.27.64-.62.665-.291.02-.53.031-.713.031C6.776 14 2 9.224 2 3.333c0-.184.01-.422.03-.713A.667.667 0 0 1 2.697 2h2.357c.172 0 .315.13.332.3a9.267 9.267 0 0 0 .847 3.035.304.304 0 0 1-.097.378l-1.44 1.028a8.698 8.698 0 0 0 4.564 4.563l1.026-1.436a.308.308 0 0 1 .382-.1 9.267 9.267 0 0 0 3.033.847c.17.017.3.16.3.332Z" />
	</symbol>

	<symbol id="tonHistory" width="14" height="14" fill="currentColor" viewBox="0 0 14 14">
		<path fill="currentColor"
			d="M10.94 1.167H3.06c-1.448 0-2.367 1.562-1.638 2.826l4.863 8.428a.826.826 0 0 0 1.43 0l4.863-8.428c.728-1.262-.19-2.826-1.638-2.826ZM6.28 9.893l-1.058-2.05-2.555-4.57a.446.446 0 0 1 .392-.667h3.22v7.288h.002Zm5.05-6.62L8.778 7.845l-1.06 2.048V2.605h3.221c.353 0 .561.375.393.668Z" />
	</symbol>

	<symbol id="deposit" width="16" height="16" fill="currentColor" viewBox="0 0 16 16">
		<path fill="currentColor"
			d="M2.667 12.667h10.666V8h1.334v5.333A.667.667 0 0 1 14 14H2a.667.667 0 0 1-.667-.667V8h1.334v4.667ZM9.333 6v4H6.667V6H3.333L8 1.333 12.667 6H9.333Z" />
	</symbol>

	<symbol id="filter" width="16" height="16" fill="none" viewBox="0 0 16 16">
		<path fill="#fff" fill-opacity=".5" d="M14 2.667V4h-.667l-4 6v4.667H6.667V10l-4-6H2V2.667h12Z" />
	</symbol>

	<symbol id="xmark" width="16" height="16" fill="currentColor" viewBox="0 0 16 16">
		<path fill="currentColor"
			d="m8 7.058 3.3-3.3.942.943-3.3 3.3 3.3 3.3-.942.942-3.3-3.3-3.3 3.3-.943-.943 3.3-3.3-3.3-3.3.943-.942 3.3 3.3Z" />
	</symbol>

	<symbol id="gift" width="16" height="16" fill="none" viewBox="0 0 16 16">
		<path fill="#fff"
			d="M13.337 8.669v4.666a.667.667 0 0 1-.667.667H3.337a.667.667 0 0 1-.667-.667V8.67h10.667ZM9.67 1.335a2.333 2.333 0 0 1 2.108 3.334h2.225c.368 0 .667.298.667.666v2a.667.667 0 0 1-.667.667h-12a.667.667 0 0 1-.666-.667v-2c0-.368.298-.666.666-.666h2.225a2.333 2.333 0 0 1 3.776-2.633 2.32 2.32 0 0 1 1.666-.7ZM6.337 2.67a1 1 0 0 0-.097 1.995l.097.005h1v-1a1 1 0 0 0-.904-.996l-.096-.004Zm3.333 0-.096.004a1 1 0 0 0-.9.9l-.004.096v1h1l.096-.005a1 1 0 0 0 0-1.99L9.67 2.67Z" />
	</symbol>

	<symbol id="lvl" width="16" height="16" fill="none" viewBox="0 0 16 16">
		<path fill="#fff"
			d="M2.036 8.667H3.38a4.668 4.668 0 0 0 9.24 0h1.343a6 6 0 0 1-11.927 0Zm0-1.334a6 6 0 0 1 11.927 0H12.62a4.668 4.668 0 0 0-9.239 0H2.036Z" />
	</symbol>

	<symbol id="step_1" width="16" height="16" fill="none" viewBox="0 0 16 16">
		<path fill="#65A0FD" fill-opacity=".1" d="M0 8a8 8 0 1 1 16 0A8 8 0 0 1 0 8Z" />
		<path stroke="#437DFC" stroke-opacity=".4" d="M8 .5a7.5 7.5 0 1 1 0 15 7.5 7.5 0 0 1 0-15Z" />
		<path fill="#65A0FD"
			d="M3.895 7.92c2.186-.952 3.644-1.58 4.374-1.883 2.082-.867 2.515-1.017 2.797-1.022a.49.49 0 0 1 .29.087.316.316 0 0 1 .108.203c.01.059.022.192.012.296-.113 1.185-.601 4.063-.85 5.392-.105.562-.312.75-.512.769-.436.04-.766-.288-1.188-.565-.66-.432-1.033-.702-1.674-1.124-.74-.488-.26-.756.162-1.195.11-.114 2.03-1.86 2.066-2.018.005-.02.01-.094-.035-.133-.044-.039-.108-.025-.155-.015-.066.015-1.12.712-3.163 2.091-.3.206-.57.306-.814.3-.268-.005-.783-.15-1.166-.275-.47-.153-.843-.234-.81-.493.017-.135.203-.273.558-.414Z" />
	</symbol>

	<symbol id="step_2" width="16" height="16" fill="none" viewBox="0 0 16 16">
		<path fill="#B87EFE" fill-opacity=".1" d="M0 8a8 8 0 1 1 16 0A8 8 0 0 1 0 8Z" />
		<path stroke="#B87EFE" stroke-opacity=".2" d="M8 .5a7.5 7.5 0 1 1 0 15 7.5 7.5 0 0 1 0-15Z" />
		<path fill="#B87EFE"
			d="M11.335 8.418v2.917c0 .23-.186.416-.416.416H5.085a.417.417 0 0 1-.416-.416V8.418h6.666ZM9.044 3.835a1.458 1.458 0 0 1 1.317 2.083h1.391c.23 0 .417.186.417.417v1.25c0 .23-.187.416-.417.416h-7.5a.417.417 0 0 1-.417-.416v-1.25c0-.23.187-.417.417-.417h1.39a1.458 1.458 0 0 1 2.36-1.646 1.45 1.45 0 0 1 1.042-.437Zm-2.084.833a.625.625 0 0 0-.06 1.247l.06.003h.625v-.625a.625.625 0 0 0-.564-.622l-.06-.003Zm2.084 0-.06.003a.625.625 0 0 0-.562.562l-.003.06v.625h.625l.06-.003a.625.625 0 0 0 0-1.244l-.06-.003Z" />
	</symbol>

	<symbol id="step_3" width="16" height="16" fill="none" viewBox="0 0 16 16">
		<path fill="#66DC7E" fill-opacity=".1" d="M0 8a8 8 0 1 1 16 0A8 8 0 0 1 0 8Z" />
		<path stroke="#66DC7E" stroke-opacity=".2" d="M8 .5a7.5 7.5 0 1 1 0 15 7.5 7.5 0 0 1 0-15Z" />
		<g clip-path="url(#a)">
			<path fill="#66DC7E"
				d="M8 12.167a4.167 4.167 0 1 1 0-8.334 4.167 4.167 0 0 1 0 8.334Zm-.416-2.5 2.947-2.947-.59-.589-2.357 2.357L6.406 7.31l-.59.589 1.768 1.768Z" />
		</g>
		<defs>
			<clipPath id="a">
				<path fill="#fff" d="M3 3h10v10H3z" />
			</clipPath>
		</defs>
	</symbol>

	<symbol id="checkDouble" width="302" height="274" viewBox="0 0 302 274" fill="none"
		xmlns="http://www.w3.org/2000/svg">
		<g filter="url(#filter0_ddi_21008_11390)">
			<path
				d="M149.872 137.986L151.752 139.866C152.923 141.037 154.823 141.037 155.994 139.866L175.855 120.005C176.962 118.898 178.756 118.898 179.862 120.005V120.005C180.969 121.111 180.969 122.905 179.862 124.012L155.994 147.88C154.823 149.051 152.923 149.051 151.752 147.88L137.845 133.973C136.739 132.867 136.739 131.073 137.845 129.966V129.966C138.952 128.86 140.746 128.86 141.852 129.966L145.869 133.983L149.872 137.986ZM151.875 131.972C150.772 130.869 150.772 129.08 151.875 127.977L161.912 117.94C163.015 116.836 164.804 116.836 165.908 117.94V117.94C167.011 119.043 167.011 120.832 165.908 121.936L155.871 131.972C154.768 133.076 152.979 133.076 151.875 131.972V131.972ZM139.867 143.996C140.972 145.101 140.972 146.894 139.866 147.999V147.999C138.761 149.105 136.969 149.105 135.863 147.999L121.837 133.973C120.73 132.866 120.73 131.073 121.837 129.966L121.878 129.925C122.962 128.841 124.719 128.841 125.803 129.926L127.842 131.965C127.843 131.966 127.843 131.967 127.842 131.968V131.968C127.841 131.969 127.841 131.97 127.842 131.971L139.867 143.996Z"
				fill="url(#paint0_radial_21008_11390)" />
		</g>
		<defs>
			<filter id="filter0_ddi_21008_11390" x="0.607323" y="0.712242" width="300.485" height="272.516"
				filterUnits="userSpaceOnUse" color-interpolation-filters="sRGB">
				<feFlood flood-opacity="0" result="BackgroundImageFix" />
				<feColorMatrix in="SourceAlpha" type="matrix" values="0 0 0 0 0 0 0 0 0 0 0 0 0 0 0 0 0 0 127 0"
					result="hardAlpha" />
				<feOffset dy="4" />
				<feGaussianBlur stdDeviation="60.2" />
				<feComposite in2="hardAlpha" operator="out" />
				<feColorMatrix type="matrix" values="0 0 0 0 0.4 0 0 0 0 1 0 0 0 0 0.321569 0 0 0 1 0" />
				<feBlend mode="normal" in2="BackgroundImageFix" result="effect1_dropShadow_21008_11390" />
				<feColorMatrix in="SourceAlpha" type="matrix" values="0 0 0 0 0 0 0 0 0 0 0 0 0 0 0 0 0 0 127 0"
					result="hardAlpha" />
				<feOffset />
				<feGaussianBlur stdDeviation="12.7" />
				<feComposite in2="hardAlpha" operator="out" />
				<feColorMatrix type="matrix" values="0 0 0 0 0.4 0 0 0 0 1 0 0 0 0 0.321569 0 0 0 0.5 0" />
				<feBlend mode="normal" in2="effect1_dropShadow_21008_11390" result="effect2_dropShadow_21008_11390" />
				<feBlend mode="normal" in="SourceGraphic" in2="effect2_dropShadow_21008_11390" result="shape" />
				<feColorMatrix in="SourceAlpha" type="matrix" values="0 0 0 0 0 0 0 0 0 0 0 0 0 0 0 0 0 0 127 0"
					result="hardAlpha" />
				<feOffset dy="2" />
				<feGaussianBlur stdDeviation="2" />
				<feComposite in2="hardAlpha" operator="arithmetic" k2="-1" k3="1" />
				<feColorMatrix type="matrix" values="0 0 0 0 0.4 0 0 0 0 1 0 0 0 0 0.321569 0 0 0 0.47 0" />
				<feBlend mode="normal" in2="shape" result="effect3_innerShadow_21008_11390" />
			</filter>
			<radialGradient id="paint0_radial_21008_11390" cx="0" cy="0" r="1" gradientUnits="userSpaceOnUse"
				gradientTransform="translate(144.602 131.503) rotate(3.16904) scale(27.1337 29.7529)">
				<stop stop-color="#CCFFC5" />
				<stop offset="1" stop-color="#00EA1B" />
			</radialGradient>
		</defs>
	</symbol>



</svg>